<?xml version="1.0" standalone="no"?>
<!DOCTYPE svg PUBLIC "-//W3C//DTD SVG 20010904//EN"
 "http://www.w3.org/TR/2001/REC-SVG-20010904/DTD/svg10.dtd">
<svg version="1.0" xmlns="http://www.w3.org/2000/svg"
 width="289.000000pt" height="283.000000pt" viewBox="0 0 289.000000 283.000000"
 preserveAspectRatio="xMidYMid meet">

<g transform="translate(0.000000,283.000000) scale(0.100000,-0.100000)"
fill="#000000" stroke="none">
<path d="M547 1760 c-154 -39 -277 -197 -277 -355 0 -138 93 -277 227 -337 74
-34 208 -32 285 4 79 37 142 98 181 177 29 59 32 74 32 156 0 82 -3 97 -32
156 -61 123 -172 197 -306 204 -39 3 -89 0 -110 -5z m218 -59 c65 -29 138
-101 167 -165 32 -72 32 -190 -1 -263 -45 -102 -51 -93 -52 83 0 194 -9 251
-39 276 -43 35 -75 24 -146 -48 l-65 -66 -63 60 c-85 82 -135 93 -156 37 -6
-15 -10 -117 -10 -227 0 -224 -3 -230 -57 -119 -36 73 -39 190 -6 262 39 86
117 156 206 185 58 19 161 12 222 -15z m-259 -302 c16 -17 41 -37 56 -45 27
-14 30 -13 72 26 24 22 46 40 50 40 3 0 6 -61 6 -135 0 -151 2 -154 77 -156
l38 -1 -45 -21 c-64 -30 -186 -30 -252 0 l-48 22 0 150 c0 83 4 151 8 151 5 0
21 -14 38 -31z"/>
<path d="M1510 1569 c0 -109 0 -110 23 -107 19 3 22 10 25 61 3 49 6 58 20 55
13 -2 18 -16 20 -61 3 -54 5 -58 25 -55 19 3 22 10 25 53 3 69 -15 100 -56 99
-30 -2 -32 0 -32 32 0 30 -3 34 -25 34 l-25 0 0 -111z"/>
<path d="M1830 1571 c0 -104 1 -111 20 -111 26 0 32 26 28 130 -3 79 -4 85
-25 88 -23 3 -23 2 -23 -107z"/>
<path d="M1112 1568 c3 -95 4 -103 23 -103 17 0 21 8 25 55 l5 55 20 -58 c24
-74 43 -72 72 8 l22 60 0 -62 c1 -60 2 -63 26 -63 l25 0 0 106 0 105 -32 -3
c-30 -3 -33 -7 -52 -65 -11 -35 -23 -63 -26 -63 -3 0 -15 28 -26 63 -19 58
-22 62 -52 65 l-33 3 3 -103z"/>
<path d="M2075 1568 c29 -93 35 -103 58 -106 23 -3 27 3 56 90 37 112 38 120
9 116 -19 -2 -26 -15 -43 -78 l-19 -75 -19 65 c-10 36 -20 71 -22 78 -2 6 -15
12 -28 12 l-25 0 33 -102z"/>
<path d="M2242 1568 c3 -95 4 -103 23 -103 15 0 21 8 23 31 3 28 8 32 39 37
46 8 73 33 73 69 0 47 -31 68 -100 68 l-61 0 3 -102z m103 32 c0 -20 -6 -26
-27 -28 -25 -3 -28 0 -28 28 0 28 3 31 28 28 21 -2 27 -8 27 -28z"/>
<path d="M2430 1564 c0 -104 0 -105 23 -102 19 3 23 10 27 63 l5 60 35 -62
c27 -49 40 -63 57 -63 22 0 23 3 23 105 l0 105 -25 0 c-24 0 -25 -3 -25 -62
l0 -63 -36 63 c-28 49 -40 62 -60 62 -24 0 -24 0 -24 -106z"/>
<path d="M1378 1609 c-31 -18 -22 -40 15 -37 17 2 34 -1 37 -7 3 -5 -8 -11
-25 -13 -29 -3 -55 -25 -55 -46 1 -29 21 -40 79 -42 l60 -2 -6 66 c-3 43 -11
71 -21 80 -19 14 -60 15 -84 1z m57 -89 c3 -6 -1 -13 -10 -16 -19 -8 -30 0
-20 15 8 14 22 14 30 1z"/>
<path d="M1692 1604 c-35 -24 -27 -37 18 -30 25 4 40 2 40 -4 0 -11 -7 -14
-52 -24 -23 -5 -28 -12 -28 -35 0 -38 15 -48 78 -48 l52 -1 0 64 c0 54 -3 65
-22 78 -12 9 -32 16 -43 16 -11 0 -31 -7 -43 -16z m58 -89 c0 -8 -7 -15 -15
-15 -8 0 -15 7 -15 15 0 8 7 15 15 15 8 0 15 -7 15 -15z"/>
<path d="M1922 1604 c-35 -24 -27 -37 18 -30 32 5 40 3 40 -9 0 -9 -9 -15 -24
-15 -41 0 -56 -11 -56 -40 0 -38 16 -48 78 -48 l52 0 0 64 c0 54 -3 65 -22 78
-12 9 -32 16 -43 16 -11 0 -31 -7 -43 -16z m58 -89 c0 -8 -6 -15 -14 -15 -17
0 -28 14 -19 24 12 12 33 6 33 -9z"/>
<path d="M1110 1270 c0 -73 4 -120 10 -120 6 0 10 25 10 55 l0 55 54 0 c30 0
58 5 61 10 4 6 -17 10 -54 10 l-61 0 0 45 0 45 65 0 c37 0 65 4 65 10 0 6 -32
10 -75 10 l-75 0 0 -120z"/>
<path d="M1310 1270 c0 -73 4 -120 10 -120 6 0 10 25 10 55 l0 55 40 0 c51 0
80 -27 80 -75 0 -23 5 -35 13 -35 17 0 7 81 -12 104 -10 12 -10 19 3 38 40 56
4 98 -84 98 l-60 0 0 -120z m116 92 c6 -4 14 -17 18 -28 10 -33 -17 -54 -70
-54 l-44 0 0 45 0 45 43 0 c23 0 47 -4 53 -8z"/>
<path d="M1530 1270 l0 -120 75 0 c43 0 75 4 75 10 0 6 -29 10 -66 10 l-65 0
3 48 3 47 60 4 60 5 -60 5 -60 6 -3 43 -3 42 65 0 c37 0 66 4 66 10 0 6 -32
10 -75 10 l-75 0 0 -120z"/>
<path d="M1730 1270 l0 -120 76 0 c47 0 73 4 69 10 -3 6 -33 10 -66 10 l-59 0
0 50 0 49 58 4 57 3 -57 2 -58 2 0 45 0 45 59 0 c33 0 63 5 66 10 4 6 -22 10
-69 10 l-76 0 0 -120z"/>
<path d="M1980 1383 c1 -22 86 -227 96 -230 10 -3 94 198 94 225 0 28 -17 8
-34 -40 -10 -29 -27 -78 -39 -107 l-20 -55 -37 104 c-20 57 -42 106 -49 108
-6 2 -11 0 -11 -5z"/>
<path d="M2217 1383 c-4 -3 -7 -58 -7 -120 0 -87 3 -114 13 -111 6 3 13 25 15
51 l3 47 45 0 c34 0 51 6 69 25 30 30 31 54 4 89 -18 23 -28 26 -78 26 -32 0
-61 -3 -64 -7z m129 -38 c15 -23 15 -27 0 -50 -14 -21 -25 -25 -61 -25 l-45 0
0 50 0 50 45 0 c36 0 47 -4 61 -25z"/>
<path d="M2420 1270 c0 -73 4 -120 10 -120 6 0 10 38 10 95 0 52 4 95 9 95 4
0 37 -43 71 -95 34 -52 67 -95 71 -95 5 0 9 54 9 120 0 145 -18 163 -22 23
l-3 -97 -64 97 c-35 53 -70 97 -77 97 -11 0 -14 -25 -14 -120z"/>
</g>
</svg>
